<?xml version="1.0" encoding="UTF-8" standalone="no"?>
<!DOCTYPE svg PUBLIC "-//W3C//DTD SVG 1.1//EN" "http://www.w3.org/Graphics/SVG/1.1/DTD/svg11.dtd">
<svg width="100%" height="100%" viewBox="0 0 72 47" version="1.1" xmlns="http://www.w3.org/2000/svg" xmlns:xlink="http://www.w3.org/1999/xlink" xml:space="preserve" xmlns:serif="http://www.serif.com/" style="fill-rule:evenodd;clip-rule:evenodd;stroke-linejoin:round;stroke-miterlimit:2;">
    <g transform="matrix(1,0,0,1,-408.308,-295.302)">
        <g transform="matrix(1.23535,0,0,1,-100.317,0)">
            <path d="M469.217,299.461C469.217,297.165 467.708,295.302 465.85,295.302L429.606,295.302C427.747,295.302 426.239,297.165 426.239,299.461C426.239,301.756 427.747,303.62 429.606,303.62L465.85,303.62C467.708,303.62 469.217,301.756 469.217,299.461Z" style="fill:rgb(218,218,218);"/>
        </g>
        <g transform="matrix(1.23535,0,0,1,-100.317,19.1137)">
            <path d="M469.217,299.461C469.217,297.165 467.708,295.302 465.85,295.302L429.606,295.302C427.747,295.302 426.239,297.165 426.239,299.461C426.239,301.756 427.747,303.62 429.606,303.62L465.85,303.62C467.708,303.62 469.217,301.756 469.217,299.461Z" style="fill:rgb(218,218,218);"/>
        </g>
        <g transform="matrix(1.23535,0,0,1,-100.317,38.2275)">
            <path d="M469.217,299.461C469.217,297.165 467.708,295.302 465.85,295.302L429.606,295.302C427.747,295.302 426.239,297.165 426.239,299.461C426.239,301.756 427.747,303.62 429.606,303.62L465.85,303.62C467.708,303.62 469.217,301.756 469.217,299.461Z" style="fill:rgb(218,218,218);"/>
        </g>
        <g transform="matrix(1,0,0,1,-3.34941,0)">
            <circle cx="415.817" cy="299.461" r="4.159" style="fill:rgb(218,218,218);"/>
        </g>
        <g transform="matrix(1,0,0,1,-3.34941,19.1137)">
            <circle cx="415.817" cy="299.461" r="4.159" style="fill:rgb(218,218,218);"/>
        </g>
        <g transform="matrix(1,0,0,1,-3.34941,38.2275)">
            <circle cx="415.817" cy="299.461" r="4.159" style="fill:rgb(218,218,218);"/>
        </g>
    </g>
</svg>
